<?xml version="1.0" encoding="UTF-8"?><svg id="Layer_2" xmlns="http://www.w3.org/2000/svg" viewBox="0 0 361 361"><defs><style>.cls-1{fill:#fff;}</style></defs><g><path class="cls-1" d="m108.7,237.25h-33.6c-2.87,0-5.2-2.34-5.2-5.21v-49.53c0-1.29.48-2.53,1.34-3.49l.19.82c-.65.73-.26,1.7-.26,2.67v49.53c0,2.17,1.76,3.94,3.93,3.94h33.6c13.75,0,25.47-7.7,28.3-20.8l1.09-1.18c-2.95,13.69-15.05,23.25-29.39,23.25Z"/><polygon class="cls-1" points="256.04 190.53 188.29 190.53 213.48 115.69 213.79 116.98 190.06 189.26 254.09 189.26 248.29 174.5 248.36 173.26 256.04 190.53"/><path class="cls-1" d="m108.13,126.16h-33.64c-2.46,0-4.46-2-4.46-4.46v-46.62c0-2.46,2-4.46,4.46-4.46h6.77l-3.9,1.27h-2.87c-1.76,0-3.19,1.43-3.19,3.19v46.62c0,1.76,1.43,3.19,3.19,3.19h33.64c9.11,0,17.52-3.24,22.36-10.85l1.33-.8c-5.08,7.96-14.15,12.91-23.69,12.91Z"/><path class="cls-1" d="m332.03,289.12h16.98c2.26,0,3.38-2.75,1.77-4.33l-14.11-13.8h.03s-91.02-204.77-91.02-204.77l6.24-18.3h0s.83-2.42.83-2.42h-.02s1.53-4.61,1.53-4.61c.29-.86-.36-1.75-1.26-1.75h-41.76c-3.06,0-5.77,1.95-6.75,4.85l-43.52,129.75c-5.26-9.64-12.21-16.41-18.02-20.82,23.81-14.57,25.82-52.24,25.82-52.24.06-.87.1-1.73.13-2.58,1.07-32.12-25.31-58.5-57.45-58.5h-45.99s-21.44,0-21.44,0h-19.53c-2.9,0-4.35,3.5-2.3,5.55l8.96,8.96c4.88,4.88,7.63,11.5,7.65,18.4l.41,162.48c.02,6.95-2.74,13.62-7.65,18.53l-9.18,9.18c-2.12,2.12-.62,5.75,2.38,5.75h14.53l26.15-.03h66.37s.09,0,.13,0h0c15.05,0,28.42-9.61,33.22-23.87l5.67-16.85c1.26-3.76,4.78-6.29,8.75-6.29h88.04c4.24,0,8.08,2.5,9.81,6.37l22.32,50.2c.64,1.43.33,3.11-.78,4.22l-2.51,2.51c-1.62,1.62-.47,4.4,1.82,4.4h33.75M74.35,66.32h33.62c18.1,0,32.9,14.86,32.35,32.95-.02.72-.06,1.44-.11,2.15-1.24,16.65-15.52,29.32-32.21,29.32h-33.64c-4.91,0-8.9-3.98-8.9-8.9v-46.62c0-4.91,3.98-8.9,8.9-8.9Zm34.35,175.37c-11.52,0-24.82,0-33.6,0-5.33,0-9.64-4.32-9.64-9.65v-49.52c0-5.33,4.32-9.65,9.65-9.65h33.48c20.23,0,36.25,17.29,34.52,37.45-.03.31-.06.61-.09.92-1.78,17.41-16.81,30.47-34.32,30.46Zm74.6-50.99l31.14-92.51c.82-2.45,4.23-2.61,5.28-.25l41.12,92.5c.89,2-.57,4.25-2.76,4.25h-71.9c-2.07,0-3.52-2.03-2.86-3.99Z"/><path class="cls-1" d="m15.63,250.04l1.69-3.6c.74-1.56,1.74-2.99,2.96-4.21h0c1.9-1.9,2.98-4.52,2.97-7.21l-.41-162.48c0-2.7-1.06-5.24-2.97-7.15l-8.96-8.96c-5.51-5.52-7.15-13.74-4.17-20.94l.51,2.62c-2.64,6.37.36,11.87,5.23,16.75l8.96,8.96c2.33,2.33,3.62,5.43,3.63,8.72l.41,162.48c0,3.27-1.31,6.47-3.63,8.79l-6.23,6.23Z"/><path class="cls-1" d="m125.12,284.39l3.9-1.57c1.07-.43,2.21-.65,3.36-.65h0c20.77-.17,39.19-13.53,45.81-33.22l4.64-13.78h52.41l-4.86,1.35c-2.08.58-4.23.87-6.39.87h-39.56l-4.13,12.27c-6.93,20.6-26.19,34.56-47.92,34.74h-7.27Z"/><path class="cls-1" d="m330.41,222.41l-70.01-156.89,4.79-15.94,2.19-8.7c.23-1.27.5-2.73.18-4.28l-.04-.16c-.58-2.13-1.64-4.1-3.12-5.83-2.86-3.32-7.17-5.23-11.84-5.23h-41.33c-8.96,0-16.92,5.73-19.77,14.22l-8.47,25.26c-.44,1.32-1.12,2.55-2.01,3.62l-2.62,3.19,10.99-32.77c3.16-9.42,11.95-15.74,21.88-15.74h41.33c5.32,0,10.25,2.19,13.53,6,1.7,1.98,2.9,4.24,3.59,6.73l.05.23c.41,2,.08,3.83-.17,5.17l-.12.64-2.11,8.24-4.56,15.2,73.24,164.75-4.26-5.48c-.54-.69-.99-1.44-1.34-2.24Z"/></g><g><path class="cls-1" d="m26.86,329.02v-13.24c0-8.18,3.41-12.03,12.69-12.03,2.25,0,4.34.17,9.34.99l-.11,6.37c0,1.26-.77,1.87-1.98,1.65-1.92-.38-3.74-.66-5.6-.66-4.34,0-5.22,1.04-5.22,5v10.49c0,4.01,1.1,5,5.22,5,1.81,0,3.63-.38,5.55-.77,1.26-.27,1.98.33,1.98,1.59l.05,6.54c-4.28.82-6.87,1.1-9.23,1.1-9.39,0-12.69-4.01-12.69-12.03Z"/><path class="cls-1" d="m51.14,313.59h6.15c1.15,0,1.81.66,1.81,1.81v2.14c1.65-2.47,3.57-4.06,5.71-4.5.55-.11,1.43-.17,2.09-.06v7.75c0,1.1-.38,1.48-1.48,1.37-.66-.06-.82-.06-.99-.06-1.37,0-3.24.99-4.56,3.13v13.4c0,1.15-.66,1.81-1.81,1.81h-6.92v-26.81Z"/><path class="cls-1" d="m67.07,332.21v-1.26c0-5.38,3.19-8.24,8.51-8.24.66,0,1.92.11,3.13.33v-.82c0-1.04-.49-1.48-2.75-1.48-1.15,0-3.08.33-5.11.71-1.21.22-1.98-.33-1.98-1.59v-5.82c3.35-.66,6.04-1.1,8.62-1.1,7.58,0,9.94,2.09,9.94,10.55v16.92h-6.21c-1.15,0-1.81-.66-1.81-1.81v-.99c-1.54,2.25-3.57,3.46-5.77,3.46-4.01,0-6.59-2.91-6.59-8.84Zm11.65-.66v-2.53c-.49-.11-.93-.16-1.32-.16-1.1,0-1.7.71-1.7,2.14v.27c0,1.32.38,1.81,1.04,1.81s1.26-.33,1.98-1.54Z"/><path class="cls-1" d="m107.06,302.93v5.55c0,1.26-.6,1.92-1.87,1.7-.66-.11-1.59-.22-1.92-.22-1.7,0-2.42.66-2.42,2.97v.66h2.58c1.15,0,1.81.66,1.81,1.81v5.99h-4.39v17.19c0,1.15-.66,1.81-1.81,1.81h-6.92v-19.01h-1.21c-1.15,0-1.81-.66-1.81-1.81v-5.99h3.02v-1.59c0-6.26,3.35-9.78,9.45-9.78,2.03,0,3.68.28,5.49.71Z"/><path class="cls-1" d="m110.08,330.45v-9.06h-2.86v-5.99c0-1.15.66-1.81,1.81-1.81h1.32l.77-5.44c.16-1.15.71-1.7,1.87-1.7h5.88v7.14h5.93v5.99c0,1.15-.66,1.81-1.81,1.81h-4.12v9.23c0,1.87.55,2.53,2.31,2.53.6,0,1.59-.11,2.53-.33,1.21-.28,1.98.38,1.98,1.65l.05,5.77c-1.76.55-4.23.82-6.21.82-6.81,0-9.45-2.69-9.45-10.6Z"/><path class="cls-1" d="m157.98,311.06c0,1.15-.66,1.81-1.81,1.81h-10.6v5.05h7.09c1.15,0,1.81.66,1.81,1.81v6.59h-8.9v12.25c0,1.15-.66,1.81-1.81,1.81h-7.31v-35.98h21.53v6.65Z"/><path class="cls-1" d="m177.92,323.37v7.25c0,6.87-3.52,10.44-10.55,10.44s-10.49-3.46-10.49-10.44v-7.25c0-6.92,3.57-10.44,10.49-10.44s10.55,3.52,10.55,10.44Zm-12.3-.27v7.86c0,1.54.6,2.31,1.76,2.31s1.81-.77,1.81-2.31v-7.91c0-1.54-.66-2.25-1.81-2.25s-1.76.71-1.76,2.31Z"/><path class="cls-1" d="m180.67,313.59h6.15c1.15,0,1.81.66,1.81,1.81v2.14c1.65-2.47,3.57-4.06,5.71-4.5.55-.11,1.43-.17,2.09-.06v7.75c0,1.1-.38,1.48-1.48,1.37-.66-.06-.82-.06-.99-.06-1.37,0-3.24.99-4.56,3.13v13.4c0,1.15-.66,1.81-1.81,1.81h-6.92v-26.81Z"/><path class="cls-1" d="m206.87,329.02v-13.24c0-8.18,3.41-12.03,12.69-12.03,2.25,0,4.34.17,9.34.99l-.11,6.37c0,1.26-.77,1.87-1.98,1.65-1.92-.38-3.74-.66-5.6-.66-4.34,0-5.22,1.04-5.22,5v10.49c0,4.01,1.1,5,5.22,5,1.81,0,3.62-.38,5.55-.77,1.26-.27,1.98.33,1.98,1.59l.05,6.54c-4.29.82-6.87,1.1-9.23,1.1-9.39,0-12.69-4.01-12.69-12.03Z"/><path class="cls-1" d="m231.42,302.88h6.92c1.15,0,1.81.66,1.81,1.81v11.15c1.76-2.14,3.63-2.91,5.71-2.91,3.85,0,6.26,2.69,6.26,9.5v17.96h-6.98c-1.15,0-1.81-.66-1.81-1.81v-15.44c0-1.7-.33-2.03-.99-2.03-.6,0-1.43.6-2.2,1.65v15.82c0,1.15-.66,1.81-1.81,1.81h-6.92v-37.52Z"/><path class="cls-1" d="m254.22,332.21v-1.26c0-5.38,3.19-8.24,8.51-8.24.66,0,1.92.11,3.13.33v-.82c0-1.04-.49-1.48-2.75-1.48-1.15,0-3.08.33-5.11.71-1.21.22-1.98-.33-1.98-1.59v-5.82c3.35-.66,6.04-1.1,8.62-1.1,7.58,0,9.94,2.09,9.94,10.55v16.92h-6.21c-1.15,0-1.81-.66-1.81-1.81v-.99c-1.54,2.25-3.57,3.46-5.77,3.46-4.01,0-6.59-2.91-6.59-8.84Zm11.65-.66v-2.53c-.49-.11-.93-.16-1.32-.16-1.1,0-1.7.71-1.7,2.14v.27c0,1.32.38,1.81,1.04,1.81s1.26-.33,1.98-1.54Z"/><path class="cls-1" d="m298.33,322.43v17.96h-6.98c-1.15,0-1.81-.66-1.81-1.81v-15.44c0-1.7-.33-2.03-.99-2.03-.6,0-1.43.6-2.2,1.65v15.82c0,1.15-.66,1.81-1.81,1.81h-6.92v-26.81h6.15c1.15,0,1.81.66,1.81,1.81v1.48c1.92-2.97,4.06-3.96,6.48-3.96,3.85,0,6.26,2.69,6.26,9.5Z"/><path class="cls-1" d="m315.58,313.64l9.45-.11v5.71c0,1.21-.66,1.81-1.87,1.76l-1.98-.11c.33.88.55,1.98.55,3.24v.55c0,4.39-3.68,7.86-10.55,7.86-.49,0-.99,0-1.43-.05-.33.27-.38.49-.38.82v.11c0,.38.16.6.77.66l5.99.38c4.29.27,6.92,2.8,6.92,6.98v2.03c0,5.05-2.36,7.75-12.2,7.75-2.86,0-5.99-.38-9.34-1.1l.22-5.49c.05-1.26.77-1.81,1.98-1.54,2.09.38,4.67.71,6.37.71,4.23,0,4.34-.17,4.34-1.1v-.11c0-.49-.22-.71-.93-.77l-6.76-.44c-4.45-.27-6.32-2.47-6.32-5.82v-.88c0-1.92,1.21-3.68,2.97-4.61-1.43-1.48-2.2-3.63-2.2-6.92v-.99c0-5.6,3.57-9.23,10.16-9.23,1.54,0,3.02.33,4.23.71Zm-5.66,8.4v1.59c0,1.26.33,1.65,1.26,1.65,1.26,0,1.81-.6,1.81-1.59v-.99c0-.93-.05-1.54-.27-1.98-.38-.11-.82-.16-1.32-.16-.93,0-1.48.55-1.48,1.48Z"/><path class="cls-1" d="m326.35,329.41v-5.99c0-6.65,3.24-10.49,10.22-10.49,6.54,0,10.33,3.57,10.33,10.49v4.83c0,1.21-.77,1.98-1.98,1.98h-9.89v.44c0,1.7.71,2.36,3.35,2.36,1.7,0,3.74-.16,5.77-.49,1.21-.16,1.92.38,1.98,1.59l.17,5.77c-3.24.71-6.76,1.15-9.12,1.15-7.75,0-10.82-3.08-10.82-11.65Zm11.92-5.33v-1.48c0-1.43-.49-1.98-1.65-1.98-1.04,0-1.59.55-1.59,1.81v1.65h3.24Z"/></g></svg>